# 3ds Max Wavefront OBJ Exporter v0.97b - (c)2007 guruware
# File Created: 17.06.2016 15:57:07

mtllib 3D_Env_Bamboo_Medium.mtl

#
# object Cylinder008
#

v  0.0235 0.8164 -0.0109
v  0.0280 0.8164 -0.0000
v  0.0280 0.6254 -0.0000
v  0.0235 0.6254 -0.0109
v  0.0126 0.8164 -0.0154
v  0.0126 0.6254 -0.0154
v  0.0018 0.8164 -0.0109
v  0.0018 0.6254 -0.0109
v  -0.0028 0.8164 -0.0000
v  -0.0028 0.6254 -0.0000
v  0.0018 0.8164 0.0109
v  0.0018 0.6254 0.0109
v  0.0126 0.8164 0.0154
v  0.0126 0.6254 0.0154
v  0.0235 0.8164 0.0109
v  0.0235 0.6254 0.0109
v  0.0235 1.4373 -0.0109
v  0.0126 1.4373 -0.0154
v  0.0126 1.4373 -0.0000
v  0.0280 1.4373 -0.0000
v  0.0280 1.2400 -0.0000
v  0.0235 1.2400 -0.0109
v  0.0235 1.2255 -0.0109
v  0.0280 1.2255 -0.0000
v  0.0280 1.0349 -0.0000
v  0.0235 1.0349 -0.0109
v  0.0235 1.0214 -0.0109
v  0.0280 1.0214 -0.0000
v  0.0280 0.8308 -0.0000
v  0.0235 0.8308 -0.0109
v  0.0280 0.0052 -0.0000
v  0.0235 0.0052 -0.0109
v  0.0235 0.2032 -0.0109
v  0.0280 0.2032 -0.0000
v  0.0280 0.2165 -0.0000
v  0.0235 0.2165 -0.0109
v  0.0235 0.4075 -0.0109
v  0.0280 0.4075 -0.0000
v  0.0280 0.4213 -0.0000
v  0.0235 0.4213 -0.0109
v  0.0235 0.6126 -0.0109
v  0.0280 0.6126 -0.0000
v  0.0126 1.2400 -0.0154
v  0.0126 1.2255 -0.0154
v  0.0126 1.0349 -0.0154
v  0.0126 1.0214 -0.0154
v  0.0126 0.8308 -0.0154
v  0.0126 0.0052 -0.0154
v  0.0126 0.2032 -0.0154
v  0.0126 0.2165 -0.0154
v  0.0126 0.4075 -0.0154
v  0.0126 0.4213 -0.0154
v  0.0126 0.6126 -0.0154
v  0.0018 1.4373 -0.0109
v  0.0018 1.2400 -0.0109
v  0.0018 1.2255 -0.0109
v  0.0018 1.0349 -0.0109
v  0.0018 1.0214 -0.0109
v  0.0018 0.8308 -0.0109
v  0.0018 0.0052 -0.0109
v  0.0018 0.2032 -0.0109
v  0.0018 0.2165 -0.0109
v  0.0018 0.4075 -0.0109
v  0.0018 0.4213 -0.0109
v  0.0018 0.6126 -0.0109
v  -0.0028 1.4373 -0.0000
v  -0.0028 1.2400 -0.0000
v  -0.0028 1.2255 -0.0000
v  -0.0028 1.0349 -0.0000
v  -0.0028 1.0214 -0.0000
v  -0.0028 0.8308 -0.0000
v  -0.0028 0.0052 -0.0000
v  -0.0028 0.2032 -0.0000
v  -0.0028 0.2165 -0.0000
v  -0.0028 0.4075 -0.0000
v  -0.0028 0.4213 -0.0000
v  -0.0028 0.6126 -0.0000
v  0.0018 1.4373 0.0109
v  0.0018 1.2400 0.0109
v  0.0018 1.2255 0.0109
v  0.0018 1.0349 0.0109
v  0.0018 1.0214 0.0109
v  0.0018 0.8308 0.0109
v  0.0018 0.0052 0.0109
v  0.0018 0.2032 0.0109
v  0.0018 0.2165 0.0109
v  0.0018 0.4075 0.0109
v  0.0018 0.4213 0.0109
v  0.0018 0.6126 0.0109
v  0.0126 1.4373 0.0154
v  0.0126 1.2400 0.0154
v  0.0126 1.2255 0.0154
v  0.0126 1.0349 0.0154
v  0.0126 1.0214 0.0154
v  0.0126 0.8308 0.0154
v  0.0126 0.0052 0.0154
v  0.0126 0.2032 0.0154
v  0.0126 0.2165 0.0154
v  0.0126 0.4075 0.0154
v  0.0126 0.4213 0.0154
v  0.0126 0.6126 0.0154
v  0.0235 1.4373 0.0109
v  0.0235 1.2400 0.0109
v  0.0235 1.2255 0.0109
v  0.0235 1.0349 0.0109
v  0.0235 1.0214 0.0109
v  0.0235 0.8308 0.0109
v  0.0235 0.0052 0.0109
v  0.0235 0.2032 0.0109
v  0.0235 0.2165 0.0109
v  0.0235 0.4075 0.0109
v  0.0235 0.4213 0.0109
v  0.0235 0.6126 0.0109
v  0.0343 1.2327 -0.0000
v  0.0279 1.2327 -0.0153
v  0.0343 1.0281 -0.0000
v  0.0279 1.0281 -0.0153
v  0.0343 0.8236 -0.0000
v  0.0279 0.8236 -0.0153
v  0.0279 0.2098 -0.0153
v  0.0343 0.2098 -0.0000
v  0.0279 0.4144 -0.0153
v  0.0343 0.4144 -0.0000
v  0.0279 0.6190 -0.0153
v  0.0343 0.6190 -0.0000
v  0.0126 1.2327 -0.0216
v  0.0126 1.0281 -0.0216
v  0.0126 0.8236 -0.0216
v  0.0126 0.2098 -0.0216
v  0.0126 0.4144 -0.0216
v  0.0126 0.6190 -0.0216
v  -0.0027 1.2327 -0.0153
v  -0.0027 1.0281 -0.0153
v  -0.0027 0.8236 -0.0153
v  -0.0027 0.2098 -0.0153
v  -0.0027 0.4144 -0.0153
v  -0.0027 0.6190 -0.0153
v  -0.0090 1.2327 -0.0000
v  -0.0090 1.0281 -0.0000
v  -0.0090 0.8236 -0.0000
v  -0.0090 0.2098 -0.0000
v  -0.0090 0.4144 -0.0000
v  -0.0090 0.6190 -0.0000
v  -0.0027 1.2327 0.0153
v  -0.0027 1.0281 0.0153
v  -0.0027 0.8236 0.0153
v  -0.0027 0.2098 0.0153
v  -0.0027 0.4144 0.0153
v  -0.0027 0.6190 0.0153
v  0.0126 1.2327 0.0216
v  0.0126 1.0281 0.0216
v  0.0126 0.8236 0.0216
v  0.0126 0.2098 0.0216
v  0.0126 0.4144 0.0216
v  0.0126 0.6190 0.0216
v  0.0279 1.2327 0.0153
v  0.0279 1.0281 0.0153
v  0.0279 0.8236 0.0153
v  0.0279 0.2098 0.0153
v  0.0279 0.4144 0.0153
v  0.0279 0.6190 0.0153
# 161 vertices

vn 0.7071 0.0000 -0.7071
vn 1.0000 0.0000 -0.0000
vn 0.7071 -0.0000 -0.7071
vn -0.0000 0.0000 -1.0000
vn -0.7071 -0.0000 -0.7071
vn -0.7071 0.0000 -0.7071
vn -1.0000 0.0000 0.0000
vn -0.7071 0.0000 0.7071
vn -0.0000 0.0000 1.0000
vn 0.0000 0.0000 1.0000
vn 0.7071 0.0000 0.7071
vn 0.0000 1.0000 -0.0000
vn 1.0000 -0.0000 -0.0000
vn 1.0000 0.0000 0.0000
vn -0.0000 -0.0000 -1.0000
vn -1.0000 -0.0000 -0.0000
vn -1.0000 0.0000 -0.0000
vn -1.0000 -0.0000 0.0000
vn -0.7071 -0.0000 0.7071
vn 0.0000 -0.0000 1.0000
vn -0.0000 -0.0000 1.0000
vn 0.7071 -0.0000 0.7071
vn 0.7570 -0.6534 -0.0000
vn 0.5353 -0.6534 -0.5353
vn 0.7344 -0.6788 -0.0000
vn 0.5193 -0.6788 -0.5193
vn 0.7540 -0.6568 -0.0000
vn 0.5332 -0.6568 -0.5332
vn 0.5151 0.6850 -0.5151
vn 0.7285 0.6850 0.0000
vn 0.5223 0.6741 -0.5223
vn 0.7386 0.6741 0.0000
vn 1.0000 -0.0000 0.0000
vn 0.5056 0.6991 -0.5056
vn 0.7150 0.6991 0.0000
vn -0.0000 -0.6534 -0.7570
vn -0.0000 -0.6788 -0.7343
vn -0.0000 -0.6568 -0.7540
vn 0.0000 0.0000 -1.0000
vn 0.0000 0.6850 -0.7285
vn 0.0000 0.6741 -0.7386
vn -0.0000 0.6991 -0.7150
vn -0.5353 -0.6534 -0.5353
vn -0.5192 -0.6788 -0.5193
vn -0.5332 -0.6568 -0.5332
vn -0.5151 0.6850 -0.5151
vn -0.5223 0.6741 -0.5223
vn -0.5056 0.6991 -0.5056
vn -0.7570 -0.6534 0.0000
vn -0.7344 -0.6788 0.0000
vn -0.7540 -0.6568 0.0000
vn -0.7285 0.6850 -0.0000
vn -0.7386 0.6741 -0.0000
vn -0.7150 0.6991 -0.0000
vn -0.5353 -0.6534 0.5353
vn -0.5193 -0.6788 0.5193
vn -0.5332 -0.6568 0.5332
vn -0.5151 0.6850 0.5151
vn -0.5223 0.6741 0.5223
vn -0.5056 0.6991 0.5056
vn 0.0000 -0.6534 0.7570
vn -0.0000 -0.6788 0.7344
vn 0.0000 -0.6568 0.7540
vn 0.0000 0.6850 0.7285
vn -0.0000 0.6741 0.7386
vn 0.0000 0.6991 0.7150
vn 0.5353 -0.6534 0.5353
vn 0.5193 -0.6788 0.5193
vn 0.5332 -0.6568 0.5332
vn 0.5151 0.6850 0.5151
vn 0.5223 0.6741 0.5223
vn 0.5056 0.6991 0.5056
vn 0.7570 0.6534 -0.0000
vn 0.5353 0.6534 -0.5353
vn 0.7344 0.6788 0.0000
vn 0.5193 0.6788 -0.5193
vn 0.7540 0.6569 0.0000
vn 0.5332 0.6569 -0.5332
vn 0.5152 -0.6850 -0.5152
vn 0.7285 -0.6850 -0.0000
vn 0.5223 -0.6741 -0.5223
vn 0.7386 -0.6741 -0.0000
vn 0.5056 -0.6991 -0.5056
vn 0.7150 -0.6991 -0.0000
vn 0.0000 0.6534 -0.7570
vn 0.0000 0.6788 -0.7344
vn 0.0000 0.6569 -0.7540
vn -0.0000 -0.6850 -0.7285
vn -0.0000 -0.6741 -0.7386
vn -0.0000 -0.6991 -0.7150
vn -0.5353 0.6534 -0.5353
vn -0.5193 0.6788 -0.5193
vn -0.5332 0.6569 -0.5332
vn -0.5152 -0.6850 -0.5152
vn -0.5223 -0.6741 -0.5223
vn -0.5056 -0.6991 -0.5056
vn -0.7570 0.6534 -0.0000
vn -0.7344 0.6788 -0.0000
vn -0.7540 0.6569 -0.0000
vn -0.7285 -0.6850 0.0000
vn -0.7386 -0.6741 0.0000
vn -0.7150 -0.6991 0.0000
vn -0.5353 0.6534 0.5353
vn -0.5193 0.6788 0.5193
vn -0.5332 0.6569 0.5332
vn -0.5152 -0.6850 0.5152
vn -0.5223 -0.6741 0.5223
vn -0.5056 -0.6991 0.5056
vn 0.0000 0.6534 0.7570
vn 0.0000 0.6788 0.7344
vn -0.0000 0.6569 0.7540
vn -0.0000 -0.6850 0.7285
vn -0.0000 -0.6741 0.7386
vn -0.0000 -0.6991 0.7150
vn 0.5353 0.6534 0.5353
vn 0.5193 0.6788 0.5193
vn 0.5332 0.6569 0.5332
vn 0.5152 -0.6850 0.5152
vn 0.5223 -0.6741 0.5223
vn 0.5056 -0.6991 0.5056
# 120 vertex normals

vt 0.0501 0.4379 0.0000
vt 0.0575 0.4379 0.0000
vt 0.0581 0.5620 0.0000
vt 0.0507 0.5620 0.0000
vt 0.0428 0.4379 0.0000
vt 0.0434 0.5621 0.0000
vt 0.0354 0.4379 0.0000
vt 0.0361 0.5621 0.0000
vt 0.0281 0.4380 0.0000
vt 0.0287 0.5621 0.0000
vt 0.0207 0.4382 0.0000
vt 0.0214 0.5620 0.0000
vt 0.0133 0.4385 0.0000
vt 0.0141 0.5618 0.0000
vt 0.0648 0.4380 0.0000
vt 0.0720 0.4382 0.0000
vt 0.0728 0.5615 0.0000
vt 0.0654 0.5618 0.0000
vt 0.0964 0.0229 0.0000
vt 0.0891 0.0259 0.0000
vt 0.0891 0.0156 0.0000
vt 0.0994 0.0156 0.8474
vt 0.0480 0.0026 0.0000
vt 0.0568 0.0027 0.0000
vt 0.0564 0.1507 0.0000
vt 0.0482 0.1508 0.0000
vt 0.0486 0.1612 0.0000
vt 0.0567 0.1613 0.0000
vt 0.0565 0.2931 0.0000
vt 0.0488 0.2931 0.0000
vt 0.0492 0.3025 0.0000
vt 0.0568 0.3026 0.0000
vt 0.0571 0.4284 0.0000
vt 0.0497 0.4284 0.0000
vt 0.0646 0.9956 0.0000
vt 0.0558 0.9958 0.0000
vt 0.0542 0.8480 0.0000
vt 0.0624 0.8479 0.0000
vt 0.0617 0.8380 0.0000
vt 0.0537 0.8381 0.0000
vt 0.0525 0.7064 0.0000
vt 0.0601 0.7064 0.0000
vt 0.0596 0.6968 0.0000
vt 0.0520 0.6969 0.0000
vt 0.0512 0.5709 0.0000
vt 0.0585 0.5709 0.0000
vt 0.0391 0.0025 0.0000
vt 0.0400 0.1508 0.0000
vt 0.0405 0.1612 0.0000
vt 0.0412 0.2931 0.0000
vt 0.0417 0.3025 0.0000
vt 0.0423 0.4285 0.0000
vt 0.0470 0.9960 0.0000
vt 0.0461 0.8481 0.0000
vt 0.0456 0.8382 0.0000
vt 0.0449 0.7064 0.0000
vt 0.0445 0.6970 0.0000
vt 0.0438 0.5709 0.0000
vt 0.0303 0.0027 0.0000
vt 0.0319 0.1508 0.0000
vt 0.0325 0.1613 0.0000
vt 0.0336 0.2932 0.0000
vt 0.0341 0.3026 0.0000
vt 0.0350 0.4285 0.0000
vt 0.0382 0.9959 0.0000
vt 0.0380 0.8481 0.0000
vt 0.0376 0.8382 0.0000
vt 0.0374 0.7065 0.0000
vt 0.0369 0.6970 0.0000
vt 0.0365 0.5709 0.0000
vt 0.0215 0.0030 0.0000
vt 0.0237 0.1509 0.0000
vt 0.0244 0.1615 0.0000
vt 0.0260 0.2932 0.0000
vt 0.0265 0.3027 0.0000
vt 0.0276 0.4285 0.0000
vt 0.0295 0.9958 0.0000
vt 0.0299 0.8481 0.0000
vt 0.0296 0.8381 0.0000
vt 0.0298 0.7065 0.0000
vt 0.0294 0.6970 0.0000
vt 0.0291 0.5710 0.0000
vt 0.0127 0.0032 0.0000
vt 0.0155 0.1510 0.0000
vt 0.0163 0.1617 0.0000
vt 0.0183 0.2932 0.0000
vt 0.0190 0.3029 0.0000
vt 0.0202 0.4284 0.0000
vt 0.0207 0.9957 0.0000
vt 0.0217 0.8481 0.0000
vt 0.0216 0.8379 0.0000
vt 0.0221 0.7066 0.0000
vt 0.0219 0.6968 0.0000
vt 0.0217 0.5711 0.0000
vt 0.0039 0.0034 0.0000
vt 0.0073 0.1510 0.0000
vt 0.0084 0.1623 0.0000
vt 0.0108 0.2932 0.0000
vt 0.0114 0.3033 0.0000
vt 0.0129 0.4283 0.0000
vt 0.0119 0.9956 0.0000
vt 0.0134 0.8482 0.0000
vt 0.0138 0.8375 0.0000
vt 0.0144 0.7067 0.0000
vt 0.0145 0.6966 0.0000
vt 0.0143 0.5713 0.0000
vt 0.0656 0.0028 0.0000
vt 0.0744 0.0029 0.0000
vt 0.0730 0.1506 0.0000
vt 0.0646 0.1507 0.0000
vt 0.0647 0.1615 0.0000
vt 0.0725 0.1619 0.0000
vt 0.0718 0.2928 0.0000
vt 0.0641 0.2930 0.0000
vt 0.0644 0.3027 0.0000
vt 0.0718 0.3030 0.0000
vt 0.0719 0.4280 0.0000
vt 0.0645 0.4282 0.0000
vt 0.0821 0.9951 0.0000
vt 0.0733 0.9953 0.0000
vt 0.0705 0.8479 0.0000
vt 0.0787 0.8479 0.0000
vt 0.0777 0.8372 0.0000
vt 0.0697 0.8377 0.0000
vt 0.0678 0.7064 0.0000
vt 0.0753 0.7064 0.0000
vt 0.0747 0.6962 0.0000
vt 0.0671 0.6966 0.0000
vt 0.0659 0.5709 0.0000
vt 0.0732 0.5710 0.0000
vt 0.0565 0.1560 0.0000
vt 0.0484 0.1560 0.0000
vt 0.0566 0.2978 0.0000
vt 0.0490 0.2978 0.0000
vt 0.0573 0.4331 0.0000
vt 0.0499 0.4331 0.0000
vt 0.0539 0.8431 0.0000
vt 0.0620 0.8429 0.0000
vt 0.0523 0.7017 0.0000
vt 0.0599 0.7016 0.0000
vt 0.0510 0.5665 0.0000
vt 0.0583 0.5664 0.0000
vt 0.0403 0.1560 0.0000
vt 0.0414 0.2978 0.0000
vt 0.0425 0.4332 0.0000
vt 0.0459 0.8431 0.0000
vt 0.0447 0.7017 0.0000
vt 0.0436 0.5665 0.0000
vt 0.0322 0.1561 0.0000
vt 0.0339 0.2979 0.0000
vt 0.0352 0.4332 0.0000
vt 0.0378 0.8431 0.0000
vt 0.0372 0.7017 0.0000
vt 0.0363 0.5665 0.0000
vt 0.0241 0.1562 0.0000
vt 0.0263 0.2980 0.0000
vt 0.0278 0.4333 0.0000
vt 0.0297 0.8431 0.0000
vt 0.0296 0.7017 0.0000
vt 0.0289 0.5665 0.0000
vt 0.0158 0.1564 0.0000
vt 0.0185 0.2981 0.0000
vt 0.0203 0.4333 0.0000
vt 0.0215 0.8430 0.0000
vt 0.0219 0.7017 0.0000
vt 0.0215 0.5666 0.0000
vt 0.0063 0.1568 0.0000
vt 0.0097 0.2983 0.0000
vt 0.0117 0.4334 0.0000
vt 0.0121 0.8427 0.0000
vt 0.0130 0.7016 0.0000
vt 0.0129 0.5666 0.0000
vt 0.0743 0.1564 0.0000
vt 0.0648 0.1561 0.0000
vt 0.0732 0.2980 0.0000
vt 0.0644 0.2979 0.0000
vt 0.0734 0.4331 0.0000
vt 0.0648 0.4331 0.0000
vt 0.0702 0.8428 0.0000
vt 0.0796 0.8424 0.0000
vt 0.0676 0.7015 0.0000
vt 0.0764 0.7012 0.0000
vt 0.0658 0.5664 0.0000
vt 0.0744 0.5662 0.0000
vt 0.0819 0.0229 0.0000
vt 0.0788 0.0156 0.8474
vt 0.0819 0.0083 0.0000
vt 0.0891 0.0053 0.0000
vt 0.0964 0.0083 0.0000
# 189 texture coords

g Cylinder008
usemtl Material__5
s 1
f 1/1/1 2/2/2 3/3/2 4/4/3 
f 5/5/4 1/1/1 4/4/3 6/6/4 
f 7/7/5 5/5/4 6/6/4 8/8/6 
f 9/9/7 7/7/5 8/8/6 10/10/7 
f 11/11/8 9/9/7 10/10/7 12/12/8 
f 13/13/9 11/11/8 12/12/8 14/14/10 
f 15/15/11 13/16/9 14/17/10 16/18/11 
f 2/2/2 15/15/11 16/18/11 3/3/2 
s 2
f 17/19/12 18/20/12 19/21/12 20/22/12 
s 1
f 17/23/1 20/24/2 21/25/13 22/26/1 
f 23/27/1 24/28/2 25/29/14 26/30/1 
f 27/31/1 28/32/13 29/33/14 30/34/3 
f 31/35/13 32/36/3 33/37/1 34/38/2 
f 35/39/13 36/40/1 37/41/1 38/42/13 
f 39/43/2 40/44/1 41/45/1 42/46/2 
f 18/47/4 17/23/1 22/26/1 43/48/4 
f 44/49/4 23/27/1 26/30/1 45/50/4 
f 46/51/4 27/31/1 30/34/3 47/52/4 
f 32/36/3 48/53/15 49/54/15 33/37/1 
f 36/40/1 50/55/4 51/56/4 37/41/1 
f 40/44/1 52/57/4 53/58/4 41/45/1 
f 54/59/6 18/47/4 43/48/4 55/60/6 
f 56/61/6 44/49/4 45/50/4 57/62/6 
f 58/63/5 46/51/4 47/52/4 59/64/6 
f 48/53/15 60/65/6 61/66/5 49/54/15 
f 50/55/4 62/67/6 63/68/6 51/56/4 
f 52/57/4 64/69/6 65/70/6 53/58/4 
f 66/71/16 54/59/6 55/60/6 67/72/7 
f 68/73/17 56/61/6 57/62/6 69/74/7 
f 70/75/17 58/63/5 59/64/6 71/76/18 
f 60/65/6 72/77/17 73/78/16 61/66/5 
f 62/67/6 74/79/18 75/80/18 63/68/6 
f 64/69/6 76/81/17 77/82/17 65/70/6 
f 78/83/19 66/71/16 67/72/7 79/84/19 
f 80/85/19 68/73/17 69/74/7 81/86/8 
f 82/87/19 70/75/17 71/76/18 83/88/19 
f 72/77/17 84/89/8 85/90/19 73/78/16 
f 74/79/18 86/91/19 87/92/19 75/80/18 
f 76/81/17 88/93/8 89/94/19 77/82/17 
f 90/95/20 78/83/19 79/84/19 91/96/20 
f 92/97/10 80/85/19 81/86/8 93/98/10 
f 94/99/21 82/87/19 83/88/19 95/100/20 
f 84/89/8 96/101/10 97/102/10 85/90/19 
f 86/91/19 98/103/20 99/104/21 87/92/19 
f 88/93/8 100/105/10 101/106/10 89/94/19 
f 102/107/22 90/108/20 91/109/20 103/110/22 
f 104/111/11 92/112/10 93/113/10 105/114/22 
f 106/115/22 94/116/21 95/117/20 107/118/22 
f 96/119/10 108/120/22 109/121/11 97/122/10 
f 98/123/20 110/124/22 111/125/22 99/126/21 
f 100/127/10 112/128/22 113/129/11 101/130/10 
f 20/24/2 102/107/22 103/110/22 21/25/13 
f 24/28/2 104/111/11 105/114/22 25/29/14 
f 28/32/13 106/115/22 107/118/22 29/33/14 
f 108/120/22 31/35/13 34/38/2 109/121/11 
f 110/124/22 35/39/13 38/42/13 111/125/22 
f 112/128/22 39/43/2 42/46/2 113/129/11 
s 2
f 114/131/2 24/28/23 23/27/24 115/132/1 
f 116/133/13 28/32/25 27/31/26 117/134/3 
f 118/135/2 2/2/27 1/1/28 119/136/1 
f 120/137/1 36/40/29 35/39/30 121/138/2 
f 122/139/1 40/44/31 39/43/32 123/140/33 
f 124/141/3 4/4/34 3/3/35 125/142/2 
f 115/132/1 23/27/24 44/49/36 126/143/4 
f 117/134/3 27/31/26 46/51/37 127/144/15 
f 119/136/1 1/1/28 5/5/38 128/145/4 
f 129/146/39 50/55/40 36/40/29 120/137/1 
f 130/147/15 52/57/41 40/44/31 122/139/1 
f 131/148/4 6/6/42 4/4/34 124/141/3 
f 126/143/4 44/49/36 56/61/43 132/149/6 
f 127/144/15 46/51/37 58/63/44 133/150/5 
f 128/145/4 5/5/38 7/7/45 134/151/6 
f 135/152/6 62/67/46 50/55/40 129/146/39 
f 136/153/5 64/69/47 52/57/41 130/147/15 
f 137/154/5 8/8/48 6/6/42 131/148/4 
f 132/149/6 56/61/43 68/73/49 138/155/17 
f 133/150/5 58/63/44 70/75/50 139/156/18 
f 134/151/6 7/7/45 9/9/51 140/157/7 
f 141/158/7 74/79/52 62/67/46 135/152/6 
f 142/159/18 76/81/53 64/69/47 136/153/5 
f 143/160/18 10/10/54 8/8/48 137/154/5 
f 138/155/17 68/73/49 80/85/55 144/161/8 
f 139/156/18 70/75/50 82/87/56 145/162/19 
f 140/157/7 9/9/51 11/11/57 146/163/8 
f 147/164/8 86/91/58 74/79/52 141/158/7 
f 148/165/8 88/93/59 76/81/53 142/159/18 
f 149/166/8 12/12/60 10/10/54 143/160/18 
f 144/161/8 80/85/55 92/97/61 150/167/10 
f 145/162/19 82/87/56 94/99/62 151/168/10 
f 146/163/8 11/11/57 13/13/63 152/169/10 
f 153/170/9 98/103/64 86/91/58 147/164/8 
f 154/171/20 100/105/65 88/93/59 148/165/8 
f 155/172/10 14/14/66 12/12/60 149/166/8 
f 150/173/10 92/112/61 104/111/67 156/174/11 
f 151/175/10 94/116/62 106/115/68 157/176/11 
f 152/177/10 13/16/63 15/15/69 158/178/11 
f 159/179/11 110/124/70 98/123/64 153/180/9 
f 160/181/22 112/128/71 100/127/65 154/182/20 
f 161/183/11 16/18/72 14/17/66 155/184/10 
f 156/174/11 104/111/67 24/28/23 114/131/2 
f 157/176/11 106/115/68 28/32/25 116/133/13 
f 158/178/11 15/15/69 2/2/27 118/135/2 
f 121/138/2 35/39/30 110/124/70 159/179/11 
f 123/140/33 39/43/32 112/128/71 160/181/22 
f 125/142/2 3/3/35 16/18/72 161/183/11 
f 21/25/73 114/131/2 115/132/1 22/26/74 
f 25/29/75 116/133/13 117/134/3 26/30/76 
f 29/33/77 118/135/2 119/136/1 30/34/78 
f 33/37/79 120/137/1 121/138/2 34/38/80 
f 37/41/81 122/139/1 123/140/33 38/42/82 
f 41/45/83 124/141/3 125/142/2 42/46/84 
f 22/26/74 115/132/1 126/143/4 43/48/85 
f 26/30/76 117/134/3 127/144/15 45/50/86 
f 30/34/78 119/136/1 128/145/4 47/52/87 
f 49/54/88 129/146/39 120/137/1 33/37/79 
f 51/56/89 130/147/15 122/139/1 37/41/81 
f 53/58/90 131/148/4 124/141/3 41/45/83 
f 43/48/85 126/143/4 132/149/6 55/60/91 
f 45/50/86 127/144/15 133/150/5 57/62/92 
f 47/52/87 128/145/4 134/151/6 59/64/93 
f 61/66/94 135/152/6 129/146/39 49/54/88 
f 63/68/95 136/153/5 130/147/15 51/56/89 
f 65/70/96 137/154/5 131/148/4 53/58/90 
f 55/60/91 132/149/6 138/155/17 67/72/97 
f 57/62/92 133/150/5 139/156/18 69/74/98 
f 59/64/93 134/151/6 140/157/7 71/76/99 
f 73/78/100 141/158/7 135/152/6 61/66/94 
f 75/80/101 142/159/18 136/153/5 63/68/95 
f 77/82/102 143/160/18 137/154/5 65/70/96 
f 67/72/97 138/155/17 144/161/8 79/84/103 
f 69/74/98 139/156/18 145/162/19 81/86/104 
f 71/76/99 140/157/7 146/163/8 83/88/105 
f 85/90/106 147/164/8 141/158/7 73/78/100 
f 87/92/107 148/165/8 142/159/18 75/80/101 
f 89/94/108 149/166/8 143/160/18 77/82/102 
f 79/84/103 144/161/8 150/167/10 91/96/109 
f 81/86/104 145/162/19 151/168/10 93/98/110 
f 83/88/105 146/163/8 152/169/10 95/100/111 
f 97/102/112 153/170/9 147/164/8 85/90/106 
f 99/104/113 154/171/20 148/165/8 87/92/107 
f 101/106/114 155/172/10 149/166/8 89/94/108 
f 91/109/109 150/173/10 156/174/11 103/110/115 
f 93/113/110 151/175/10 157/176/11 105/114/116 
f 95/117/111 152/177/10 158/178/11 107/118/117 
f 109/121/118 159/179/11 153/180/9 97/122/112 
f 111/125/119 160/181/22 154/182/20 99/126/113 
f 113/129/120 161/183/11 155/184/10 101/130/114 
f 103/110/115 156/174/11 114/131/2 21/25/73 
f 105/114/116 157/176/11 116/133/13 25/29/75 
f 107/118/117 158/178/11 118/135/2 29/33/77 
f 34/38/80 121/138/2 159/179/11 109/121/118 
f 38/42/82 123/140/33 160/181/22 111/125/119 
f 42/46/84 125/142/2 161/183/11 113/129/120 
f 54/185/12 66/186/12 19/21/12 18/20/12 
f 78/187/12 90/188/12 19/21/12 66/186/12 
f 19/21/12 90/188/12 102/189/12 20/22/12 
# 156 polygons

