# 3ds Max Wavefront OBJ Exporter v0.97b - (c)2007 guruware
# File Created: 17.06.2016 15:23:53

mtllib Shop_Bucket.mtl

#
# object Shop_Bukkit
#

v  3.4927 0.0000 0.0000
v  3.5006 0.0000 0.0451
v  3.4922 0.0669 0.0482
v  3.4837 0.0669 0.0000
v  3.5235 0.0000 0.0848
v  3.5166 0.0669 0.0906
v  3.5586 0.0000 0.1142
v  3.5541 0.0669 0.1220
v  3.6017 0.0000 0.1299
v  3.6001 0.0669 0.1387
v  3.6475 0.0000 0.1299
v  3.6490 0.0669 0.1387
v  3.6905 0.0000 0.1142
v  3.6950 0.0669 0.1220
v  3.7256 0.0000 0.0848
v  3.7325 0.0669 0.0906
v  3.7485 0.0000 0.0451
v  3.7569 0.0669 0.0482
v  3.7564 0.0000 0.0000
v  3.7654 0.0669 0.0000
v  3.7485 0.0000 -0.0451
v  3.7569 0.0669 -0.0482
v  3.7256 0.0000 -0.0848
v  3.7325 0.0669 -0.0906
v  3.6905 0.0000 -0.1142
v  3.6950 0.0669 -0.1220
v  3.6475 0.0000 -0.1299
v  3.6490 0.0669 -0.1387
v  3.6017 0.0000 -0.1299
v  3.6001 0.0669 -0.1387
v  3.5586 0.0000 -0.1142
v  3.5541 0.0669 -0.1220
v  3.5235 0.0000 -0.0848
v  3.5166 0.0669 -0.0906
v  3.5006 0.0000 -0.0451
v  3.4922 0.0669 -0.0482
v  3.4832 0.1424 0.0515
v  3.4741 0.1424 0.0000
v  3.5093 0.1424 0.0967
v  3.5493 0.1424 0.1303
v  3.5984 0.1424 0.1482
v  3.6507 0.1424 0.1482
v  3.6998 0.1424 0.1303
v  3.7398 0.1424 0.0967
v  3.7660 0.1424 0.0515
v  3.7750 0.1424 0.0000
v  3.7660 0.1424 -0.0515
v  3.7398 0.1424 -0.0967
v  3.6998 0.1424 -0.1303
v  3.6507 0.1424 -0.1482
v  3.5984 0.1424 -0.1482
v  3.5493 0.1424 -0.1303
v  3.5093 0.1424 -0.0967
v  3.4832 0.1424 -0.0515
v  3.4804 0.2219 0.0548
v  3.4712 0.2219 0.0000
v  3.5070 0.2219 0.1030
v  3.5479 0.2219 0.1388
v  3.5979 0.2219 0.1578
v  3.6512 0.2219 0.1578
v  3.7013 0.2219 0.1388
v  3.7421 0.2219 0.1030
v  3.7687 0.2219 0.0548
v  3.7780 0.2219 0.0000
v  3.7687 0.2219 -0.0548
v  3.7421 0.2219 -0.1030
v  3.7013 0.2219 -0.1388
v  3.6512 0.2219 -0.1578
v  3.5979 0.2219 -0.1578
v  3.5479 0.2219 -0.1388
v  3.5070 0.2219 -0.1030
v  3.4804 0.2219 -0.0548
v  3.4763 0.3059 0.0564
v  3.4668 0.3059 0.0000
v  3.5037 0.3059 0.1059
v  3.5457 0.3059 0.1427
v  3.5972 0.3059 0.1623
v  3.6520 0.3059 0.1623
v  3.7035 0.3059 0.1427
v  3.7454 0.3059 0.1059
v  3.7728 0.3059 0.0564
v  3.7824 0.3059 0.0000
v  3.7728 0.3059 -0.0564
v  3.7454 0.3059 -0.1059
v  3.7035 0.3059 -0.1427
v  3.6520 0.3059 -0.1623
v  3.5972 0.3059 -0.1623
v  3.5457 0.3059 -0.1427
v  3.5037 0.3059 -0.1059
v  3.4763 0.3059 -0.0564
v  3.4763 0.3288 0.0564
v  3.4668 0.3288 0.0000
v  3.5037 0.3288 0.1059
v  3.5457 0.3288 0.1427
v  3.5972 0.3288 0.1623
v  3.6520 0.3288 0.1623
v  3.7035 0.3288 0.1427
v  3.7454 0.3288 0.1059
v  3.7728 0.3288 0.0564
v  3.7824 0.3288 0.0000
v  3.7728 0.3288 -0.0564
v  3.7454 0.3288 -0.1059
v  3.7035 0.3288 -0.1427
v  3.6520 0.3288 -0.1623
v  3.6520 0.3059 -0.1727
v  3.5972 0.3059 -0.1727
v  3.5972 0.3288 -0.1727
v  3.6520 0.3288 -0.1727
v  3.5457 0.3288 -0.1427
v  3.5972 0.3288 -0.1623
v  3.5037 0.3288 -0.1059
v  3.4763 0.3288 -0.0564
v  3.5972 0.6137 -0.1623
v  3.6520 0.6137 -0.1623
v  3.6520 0.6137 -0.1727
v  3.5972 0.6137 -0.1727
v  3.6520 0.4198 -0.1623
v  3.5972 0.4198 -0.1623
v  3.6520 0.4198 -0.1727
v  3.5972 0.4198 -0.1727
v  3.6520 0.5108 -0.1623
v  3.5972 0.5108 -0.1623
v  3.6520 0.5108 -0.1727
v  3.5972 0.5108 -0.1727
v  3.6520 0.6019 -0.1623
v  3.5972 0.6019 -0.1623
v  3.6520 0.6019 -0.1727
v  3.5972 0.6019 -0.1727
v  3.6520 0.6019 -0.1924
v  3.5972 0.6019 -0.1924
v  3.5972 0.6137 -0.1924
v  3.6520 0.6137 -0.1924
v  3.5972 0.6019 -0.1855
v  3.6520 0.6019 -0.1855
v  3.5972 0.6137 -0.1855
v  3.6520 0.6137 -0.1855
v  3.6520 0.5949 -0.1855
v  3.5972 0.5949 -0.1855
v  3.5972 0.5949 -0.1924
v  3.6520 0.5949 -0.1924
v  3.5003 0.3288 0.0472
v  3.4924 0.3288 -0.0000
v  3.5233 0.3288 0.0888
v  3.5585 0.3288 0.1196
v  3.6016 0.3288 0.1360
v  3.6475 0.3288 0.1360
v  3.6907 0.3288 0.1196
v  3.7258 0.3288 0.0888
v  3.7488 0.3288 0.0472
v  3.7568 0.3288 0.0000
v  3.7488 0.3288 -0.0472
v  3.7258 0.3288 -0.0888
v  3.6907 0.3288 -0.1196
v  3.6475 0.3288 -0.1360
v  3.6016 0.3288 -0.1360
v  3.5585 0.3288 -0.1196
v  3.5233 0.3288 -0.0888
v  3.5003 0.3288 -0.0472
v  3.5003 0.3052 0.0472
v  3.4924 0.3052 -0.0000
v  3.5233 0.3052 0.0888
v  3.5585 0.3052 0.1196
v  3.6016 0.3052 0.1360
v  3.6475 0.3052 0.1360
v  3.6907 0.3052 0.1196
v  3.7258 0.3052 0.0888
v  3.7488 0.3052 0.0472
v  3.7568 0.3052 0.0000
v  3.7488 0.3052 -0.0472
v  3.7258 0.3052 -0.0888
v  3.6907 0.3052 -0.1196
v  3.6475 0.3052 -0.1360
v  3.6016 0.3052 -0.1360
v  3.5585 0.3052 -0.1196
v  3.5233 0.3052 -0.0888
v  3.5003 0.3052 -0.0472
v  3.6246 0.0000 0.0000
# 177 vertices

vn -0.9911 -0.1333 -0.0000
vn -0.9313 -0.1333 0.3390
vn -0.9318 -0.1297 0.3391
vn -0.9915 -0.1297 -0.0000
vn -0.7592 -0.1333 0.6370
vn -0.7596 -0.1297 0.6374
vn -0.4955 -0.1333 0.8583
vn -0.4958 -0.1297 0.8587
vn -0.1721 -0.1333 0.9760
vn -0.1722 -0.1297 0.9765
vn 0.1721 -0.1333 0.9760
vn 0.1722 -0.1297 0.9765
vn 0.4955 -0.1333 0.8583
vn 0.4958 -0.1297 0.8587
vn 0.7592 -0.1333 0.6370
vn 0.7596 -0.1297 0.6374
vn 0.9313 -0.1333 0.3390
vn 0.9318 -0.1297 0.3391
vn 0.9911 -0.1333 0.0000
vn 0.9915 -0.1297 0.0000
vn 0.9313 -0.1333 -0.3390
vn 0.9318 -0.1297 -0.3391
vn 0.7592 -0.1333 -0.6370
vn 0.7596 -0.1297 -0.6374
vn 0.4955 -0.1333 -0.8583
vn 0.4958 -0.1297 -0.8587
vn 0.1721 -0.1333 -0.9760
vn 0.1722 -0.1297 -0.9765
vn -0.1721 -0.1333 -0.9760
vn -0.1722 -0.1297 -0.9765
vn -0.4955 -0.1333 -0.8583
vn -0.4958 -0.1297 -0.8587
vn -0.7592 -0.1333 -0.6370
vn -0.7596 -0.1297 -0.6374
vn -0.9313 -0.1333 -0.3390
vn -0.9317 -0.1297 -0.3391
vn -0.9372 -0.0881 0.3375
vn -0.9966 -0.0820 -0.0007
vn -0.7650 -0.1010 0.6361
vn -0.4997 -0.1147 0.8586
vn -0.1732 -0.1227 0.9772
vn 0.1745 -0.1212 0.9772
vn 0.5006 -0.1108 0.8586
vn 0.7652 -0.0967 0.6365
vn 0.9370 -0.0853 0.3386
vn 0.9966 -0.0820 0.0007
vn 0.9372 -0.0881 -0.3375
vn 0.7650 -0.1010 -0.6361
vn 0.4997 -0.1147 -0.8586
vn 0.1732 -0.1227 -0.9772
vn -0.1745 -0.1212 -0.9772
vn -0.5006 -0.1108 -0.8586
vn -0.7652 -0.0967 -0.6365
vn -0.9370 -0.0853 -0.3386
vn -0.9422 -0.0487 0.3313
vn -0.9990 -0.0453 -0.0007
vn -0.7750 -0.0604 0.6291
vn -0.5106 -0.0748 0.8565
vn -0.1780 -0.0851 0.9803
vn 0.1792 -0.0865 0.9800
vn 0.5110 -0.0784 0.8560
vn 0.7745 -0.0646 0.6292
vn 0.9418 -0.0515 0.3323
vn 0.9990 -0.0453 0.0007
vn 0.9422 -0.0487 -0.3313
vn 0.7750 -0.0604 -0.6291
vn 0.5106 -0.0748 -0.8565
vn 0.1780 -0.0851 -0.9803
vn -0.1792 -0.0865 -0.9800
vn -0.5110 -0.0784 -0.8560
vn -0.7745 -0.0646 -0.6292
vn -0.9418 -0.0515 -0.3323
vn -0.9437 -0.0261 0.3297
vn -0.9997 -0.0260 -0.0000
vn -0.7785 -0.0265 0.6271
vn -0.5151 -0.0269 0.8567
vn -0.1805 -0.0271 0.9832
vn 0.1805 -0.0271 0.9832
vn 0.5151 -0.0269 0.8567
vn 0.7785 -0.0265 0.6271
vn 0.9437 -0.0261 0.3297
vn 0.9997 -0.0260 0.0000
vn 0.9437 -0.0261 -0.3297
vn 0.7785 -0.0265 -0.6271
vn 0.5151 -0.0269 -0.8567
vn 0.2405 -0.0361 -0.9700
vn -0.2405 -0.0361 -0.9700
vn -0.5151 -0.0269 -0.8567
vn -0.7785 -0.0265 -0.6271
vn -0.9437 -0.0261 -0.3297
vn -0.9441 0.0000 0.3298
vn -1.0000 0.0000 -0.0000
vn -0.7788 0.0000 0.6273
vn -0.5154 0.0000 0.8569
vn -0.1807 0.0000 0.9835
vn 0.1807 0.0000 0.9835
vn 0.5154 0.0000 0.8569
vn 0.7788 0.0000 0.6273
vn 0.9441 0.0000 0.3298
vn 1.0000 0.0000 -0.0000
vn 0.9441 0.0000 -0.3298
vn 0.7788 0.0000 -0.6273
vn 0.5154 0.0000 -0.8569
vn 0.3554 0.0000 -0.9347
vn 0.0000 0.0000 -1.0000
vn -0.5154 0.0000 -0.8569
vn -0.3554 0.0000 -0.9347
vn -0.7788 0.0000 -0.6273
vn -0.9441 0.0000 -0.3298
vn 0.0000 -1.0000 -0.0000
vn 0.0000 1.0000 -0.0000
vn 1.0000 0.0000 0.0000
vn -0.0000 0.0000 1.0000
vn -0.0000 1.0000 -0.0000
vn -0.0000 1.0000 0.0000
vn 0.0000 1.0000 0.0000
vn 0.9861 0.0000 -0.1664
vn 0.8752 0.0000 -0.4837
vn 0.6591 0.0000 -0.7520
vn -0.6591 0.0000 -0.7520
vn -0.8752 0.0000 -0.4837
vn -0.9861 0.0000 -0.1664
vn -0.9861 0.0000 0.1664
vn -0.8752 0.0000 0.4837
vn -0.6591 0.0000 0.7520
vn -0.3554 0.0000 0.9347
vn 0.3554 0.0000 0.9347
vn 0.6591 0.0000 0.7520
vn 0.8752 0.0000 0.4837
vn 0.9860 0.0000 0.1664
# 130 vertex normals

vt -0.3080 0.2479 0.0000
vt -0.3115 0.2954 0.0000
vt -0.3802 0.2910 0.0000
vt -0.3767 0.2420 0.0000
vt -0.3139 0.3428 0.0000
vt -0.3827 0.3400 0.0000
vt -0.3153 0.3903 0.0000
vt -0.3841 0.3890 0.0000
vt -0.3157 0.4378 0.0000
vt -0.3845 0.4380 0.0000
vt -0.3150 0.4854 0.0000
vt -0.3839 0.4870 0.0000
vt -0.3133 0.5329 0.0000
vt -0.3822 0.5360 0.0000
vt -0.3106 0.5804 0.0000
vt -0.3794 0.5851 0.0000
vt -0.3068 0.6280 0.0000
vt -0.3756 0.6341 0.0000
vt -0.3020 0.6755 0.0000
vt -0.3708 0.6832 0.0000
vt -0.2961 0.7230 0.0000
vt -0.3650 0.7324 0.0000
vt -0.2890 0.7704 0.0000
vt -0.3578 0.7817 0.0000
vt -0.2805 0.8176 0.0000
vt -0.3493 0.8311 0.0000
vt -0.2705 0.8646 0.0000
vt -0.3390 0.8806 0.0000
vt -0.2586 0.9110 0.0000
vt -0.3267 0.9301 0.0000
vt -0.2809 0.0597 0.0000
vt -0.2901 0.1063 0.0000
vt -0.3587 0.0942 0.0000
vt -0.3494 0.0446 0.0000
vt -0.2974 0.1533 0.0000
vt -0.3662 0.1436 0.0000
vt -0.3033 0.2006 0.0000
vt -0.3721 0.1929 0.0000
vt -0.4549 0.2866 0.0000
vt -0.4516 0.2360 0.0000
vt -0.4574 0.3370 0.0000
vt -0.4590 0.3875 0.0000
vt -0.4595 0.4381 0.0000
vt -0.4588 0.4888 0.0000
vt -0.4571 0.5394 0.0000
vt -0.4543 0.5899 0.0000
vt -0.4505 0.6404 0.0000
vt -0.4458 0.6910 0.0000
vt -0.4403 0.7419 0.0000
vt -0.4337 0.7932 0.0000
vt -0.4257 0.8451 0.0000
vt -0.4158 0.8977 0.0000
vt -0.4036 0.9506 0.0000
vt -0.4353 0.0818 0.0000
vt -0.4266 0.0289 0.0000
vt -0.4420 0.1339 0.0000
vt -0.4473 0.1852 0.0000
vt -0.5317 0.2844 0.0000
vt -0.5287 0.2307 0.0000
vt -0.5341 0.3371 0.0000
vt -0.5355 0.3887 0.0000
vt -0.5360 0.4392 0.0000
vt -0.5354 0.4894 0.0000
vt -0.5338 0.5400 0.0000
vt -0.5311 0.5917 0.0000
vt -0.5275 0.6445 0.0000
vt -0.5231 0.6983 0.0000
vt -0.5180 0.7525 0.0000
vt -0.5120 0.8067 0.0000
vt -0.5050 0.8607 0.0000
vt -0.4965 0.9147 0.0000
vt -0.4856 0.9690 0.0000
vt -0.5151 0.0684 0.0000
vt -0.5084 0.0138 0.0000
vt -0.5205 0.1225 0.0000
vt -0.5249 0.1766 0.0000
vt -0.6124 0.2810 0.0000
vt -0.6099 0.2261 0.0000
vt -0.6141 0.3350 0.0000
vt -0.6150 0.3878 0.0000
vt -0.6151 0.4395 0.0000
vt -0.6146 0.4909 0.0000
vt -0.6133 0.5427 0.0000
vt -0.6113 0.5956 0.0000
vt -0.6084 0.6498 0.0000
vt -0.6047 0.7049 0.0000
vt -0.6001 0.7604 0.0000
vt -0.5951 0.8158 0.0000
vt -0.5896 0.8716 0.0000
vt -0.5830 0.9292 0.0000
vt -0.5725 0.9859 0.0000
vt -0.5995 0.0608 0.0000
vt -0.5956 0.0038 0.0000
vt -0.6031 0.1160 0.0000
vt -0.6067 0.1710 0.0000
vt -0.6344 0.2802 0.0000
vt -0.6320 0.2250 0.0000
vt -0.6359 0.3345 0.0000
vt -0.6366 0.3876 0.0000
vt -0.6366 0.4396 0.0000
vt -0.6361 0.4912 0.0000
vt -0.6350 0.5433 0.0000
vt -0.6332 0.5965 0.0000
vt -0.6305 0.6511 0.0000
vt -0.6269 0.7065 0.0000
vt -0.6224 0.7623 0.0000
vt -0.6175 0.8178 0.0000
vt -0.6127 0.8733 0.0000
vt -0.6088 0.9325 0.0000
vt -0.1193 0.3328 0.0000
vt -0.1746 0.3328 0.0000
vt -0.1746 0.3097 0.0000
vt -0.1193 0.3097 0.0000
vt -0.6222 0.0599 0.0000
vt -0.6212 0.0020 0.0000
vt -0.6253 0.1146 0.0000
vt -0.6288 0.1696 0.0000
vt -0.1193 0.3433 0.0000
vt -0.1746 0.3433 0.0000
vt -0.2595 0.0141 0.0000
vt -0.2594 0.0372 0.0000
vt -0.2698 0.0372 0.0000
vt -0.2699 0.0141 0.0000
vt -0.2577 0.3243 0.0000
vt -0.2025 0.3240 0.0000
vt -0.2024 0.3345 0.0000
vt -0.2577 0.3348 0.0000
vt -0.2041 0.0369 0.0000
vt -0.2043 0.0138 0.0000
vt -0.1938 0.0137 0.0000
vt -0.1936 0.0368 0.0000
vt -0.2036 0.1286 0.0000
vt -0.2588 0.1289 0.0000
vt -0.1931 0.1285 0.0000
vt -0.1746 0.2180 0.0000
vt -0.1193 0.2180 0.0000
vt -0.2693 0.1290 0.0000
vt -0.2031 0.2203 0.0000
vt -0.2583 0.2207 0.0000
vt -0.1926 0.2203 0.0000
vt -0.1746 0.1262 0.0000
vt -0.1193 0.1262 0.0000
vt -0.2688 0.2207 0.0000
vt -0.2025 0.3121 0.0000
vt -0.2578 0.3124 0.0000
vt -0.1921 0.3120 0.0000
vt -0.1746 0.0345 0.0000
vt -0.1193 0.0345 0.0000
vt -0.2683 0.3125 0.0000
vt -0.1905 0.3239 0.0000
vt -0.1905 0.3344 0.0000
vt -0.2022 0.3663 0.0000
vt -0.2575 0.3666 0.0000
vt -0.2575 0.3547 0.0000
vt -0.2023 0.3544 0.0000
vt -0.2696 0.3349 0.0000
vt -0.2696 0.3244 0.0000
vt -0.1746 0.0216 0.0000
vt -0.1193 0.0216 0.0000
vt -0.2576 0.3477 0.0000
vt -0.2695 0.3478 0.0000
vt -0.2023 0.3474 0.0000
vt -0.1904 0.3473 0.0000
vt -0.2021 0.3803 0.0000
vt -0.2574 0.3806 0.0000
vt -0.2574 0.3736 0.0000
vt -0.2022 0.3733 0.0000
vt -0.2645 0.3666 0.0000
vt -0.2645 0.3547 0.0000
vt -0.1953 0.3543 0.0000
vt -0.1952 0.3662 0.0000
vt -0.1746 0.0146 0.0000
vt -0.1193 0.0146 0.0000
vt -0.2644 0.3736 0.0000
vt -0.1952 0.3732 0.0000
vt -0.6606 0.2781 0.0000
vt -0.6582 0.2233 0.0000
vt -0.6624 0.3324 0.0000
vt -0.6633 0.3860 0.0000
vt -0.6635 0.4389 0.0000
vt -0.6630 0.4916 0.0000
vt -0.6618 0.5446 0.0000
vt -0.6597 0.5983 0.0000
vt -0.6569 0.6529 0.0000
vt -0.6533 0.7080 0.0000
vt -0.6491 0.7633 0.0000
vt -0.6448 0.8184 0.0000
vt -0.6412 0.8733 0.0000
vt -0.6409 0.9296 0.0000
vt -0.6212 0.9980 0.0000
vt -0.6513 0.9859 0.0000
vt -0.6499 0.0602 0.0000
vt -0.6503 0.0082 0.0000
vt -0.6522 0.1139 0.0000
vt -0.6552 0.1684 0.0000
vt -0.6878 0.2771 0.0000
vt -0.6853 0.2219 0.0000
vt -0.6895 0.3318 0.0000
vt -0.6905 0.3857 0.0000
vt -0.6907 0.4390 0.0000
vt -0.6902 0.4921 0.0000
vt -0.6890 0.5454 0.0000
vt -0.6870 0.5995 0.0000
vt -0.6842 0.6545 0.0000
vt -0.6806 0.7100 0.0000
vt -0.6764 0.7654 0.0000
vt -0.6721 0.8202 0.0000
vt -0.6689 0.8740 0.0000
vt -0.6695 0.9272 0.0000
vt -0.6790 0.9810 0.0000
vt -0.6768 0.0597 0.0000
vt -0.6767 0.0081 0.0000
vt -0.6791 0.1126 0.0000
vt -0.6823 0.1669 0.0000
vt -0.2881 0.5618 -0.1638
vt -0.2961 0.5164 0.1638
vt -0.1632 0.5164 -0.1638
vt -0.2650 0.6018 -0.1638
vt -0.2297 0.6315 -0.1638
vt -0.1863 0.6473 -0.1638
vt -0.1401 0.6473 -0.1638
vt -0.0968 0.6315 -0.1638
vt -0.0614 0.6018 -0.1638
vt -0.0383 0.5618 -0.1638
vt -0.0303 0.5164 0.1638
vt -0.0383 0.4709 -0.1638
vt -0.0614 0.4309 -0.1638
vt -0.0968 0.4013 -0.1638
vt -0.1401 0.3855 -0.1638
vt -0.1863 0.3855 -0.1638
vt -0.2297 0.4013 -0.1638
vt -0.2650 0.4309 -0.1638
vt -0.2881 0.4709 -0.1638
# 233 texture coords

g Shop_Bukkit
usemtl 24___Default
s 8
f 1/1/1 2/2/2 3/3/3 4/4/4 
f 2/2/2 5/5/5 6/6/6 3/3/3 
f 5/5/5 7/7/7 8/8/8 6/6/6 
f 7/7/7 9/9/9 10/10/10 8/8/8 
f 9/9/9 11/11/11 12/12/12 10/10/10 
f 11/11/11 13/13/13 14/14/14 12/12/12 
f 13/13/13 15/15/15 16/16/16 14/14/14 
f 15/15/15 17/17/17 18/18/18 16/16/16 
f 17/17/17 19/19/19 20/20/20 18/18/18 
f 19/19/19 21/21/21 22/22/22 20/20/20 
f 21/21/21 23/23/23 24/24/24 22/22/22 
f 23/23/23 25/25/25 26/26/26 24/24/24 
f 25/25/25 27/27/27 28/28/28 26/26/26 
f 27/27/27 29/29/29 30/30/30 28/28/28 
f 29/31/29 31/32/31 32/33/32 30/34/30 
f 31/32/31 33/35/33 34/36/34 32/33/32 
f 33/35/33 35/37/35 36/38/36 34/36/34 
f 35/37/35 1/1/1 4/4/4 36/38/36 
f 4/4/4 3/3/3 37/39/37 38/40/38 
f 3/3/3 6/6/6 39/41/39 37/39/37 
f 6/6/6 8/8/8 40/42/40 39/41/39 
f 8/8/8 10/10/10 41/43/41 40/42/40 
f 10/10/10 12/12/12 42/44/42 41/43/41 
f 12/12/12 14/14/14 43/45/43 42/44/42 
f 14/14/14 16/16/16 44/46/44 43/45/43 
f 16/16/16 18/18/18 45/47/45 44/46/44 
f 18/18/18 20/20/20 46/48/46 45/47/45 
f 20/20/20 22/22/22 47/49/47 46/48/46 
f 22/22/22 24/24/24 48/50/48 47/49/47 
f 24/24/24 26/26/26 49/51/49 48/50/48 
f 26/26/26 28/28/28 50/52/50 49/51/49 
f 28/28/28 30/30/30 51/53/51 50/52/50 
f 30/34/30 32/33/32 52/54/52 51/55/51 
f 32/33/32 34/36/34 53/56/53 52/54/52 
f 34/36/34 36/38/36 54/57/54 53/56/53 
f 36/38/36 4/4/4 38/40/38 54/57/54 
f 38/40/38 37/39/37 55/58/55 56/59/56 
f 37/39/37 39/41/39 57/60/57 55/58/55 
f 39/41/39 40/42/40 58/61/58 57/60/57 
f 40/42/40 41/43/41 59/62/59 58/61/58 
f 41/43/41 42/44/42 60/63/60 59/62/59 
f 42/44/42 43/45/43 61/64/61 60/63/60 
f 43/45/43 44/46/44 62/65/62 61/64/61 
f 44/46/44 45/47/45 63/66/63 62/65/62 
f 45/47/45 46/48/46 64/67/64 63/66/63 
f 46/48/46 47/49/47 65/68/65 64/67/64 
f 47/49/47 48/50/48 66/69/66 65/68/65 
f 48/50/48 49/51/49 67/70/67 66/69/66 
f 49/51/49 50/52/50 68/71/68 67/70/67 
f 50/52/50 51/53/51 69/72/69 68/71/68 
f 51/55/51 52/54/52 70/73/70 69/74/69 
f 52/54/52 53/56/53 71/75/71 70/73/70 
f 53/56/53 54/57/54 72/76/72 71/75/71 
f 54/57/54 38/40/38 56/59/56 72/76/72 
f 56/59/56 55/58/55 73/77/73 74/78/74 
f 55/58/55 57/60/57 75/79/75 73/77/73 
f 57/60/57 58/61/58 76/80/76 75/79/75 
f 58/61/58 59/62/59 77/81/77 76/80/76 
f 59/62/59 60/63/60 78/82/78 77/81/77 
f 60/63/60 61/64/61 79/83/79 78/82/78 
f 61/64/61 62/65/62 80/84/80 79/83/79 
f 62/65/62 63/66/63 81/85/81 80/84/80 
f 63/66/63 64/67/64 82/86/82 81/85/81 
f 64/67/64 65/68/65 83/87/83 82/86/82 
f 65/68/65 66/69/66 84/88/84 83/87/83 
f 66/69/66 67/70/67 85/89/85 84/88/84 
f 67/70/67 68/71/68 86/90/86 85/89/85 
f 68/71/68 69/72/69 87/91/87 86/90/86 
f 69/74/69 70/73/70 88/92/88 87/93/87 
f 70/73/70 71/75/71 89/94/89 88/92/88 
f 71/75/71 72/76/72 90/95/90 89/94/89 
f 72/76/72 56/59/56 74/78/74 90/95/90 
f 74/78/74 73/77/73 91/96/91 92/97/92 
f 73/77/73 75/79/75 93/98/93 91/96/91 
f 75/79/75 76/80/76 94/99/94 93/98/93 
f 76/80/76 77/81/77 95/100/95 94/99/94 
f 77/81/77 78/82/78 96/101/96 95/100/95 
f 78/82/78 79/83/79 97/102/97 96/101/96 
f 79/83/79 80/84/80 98/103/98 97/102/97 
f 80/84/80 81/85/81 99/104/99 98/103/98 
f 81/85/81 82/86/82 100/105/100 99/104/99 
f 82/86/82 83/87/83 101/106/101 100/105/100 
f 83/87/83 84/88/84 102/107/102 101/106/101 
f 84/88/84 85/89/85 103/108/103 102/107/102 
f 85/89/85 86/90/86 104/109/104 103/108/103 
f 105/110/105 106/111/105 107/112/105 108/113/105 
f 87/93/87 88/92/88 109/114/106 110/115/107 
f 88/92/88 89/94/89 111/116/108 109/114/106 
f 89/94/89 90/95/90 112/117/109 111/116/108 
f 90/95/90 74/78/74 92/97/92 112/117/109 
s off
f 86/118/110 87/119/110 106/111/110 105/110/110 
f 87/120/92 110/121/92 107/122/92 106/123/92 
f 113/124/111 114/125/111 115/126/111 116/127/111 
f 104/128/112 86/129/112 105/130/112 108/131/112 
f 110/121/113 104/128/113 117/132/113 118/133/113 
f 104/128/112 108/131/112 119/134/112 117/132/112 
f 108/113/105 107/112/105 120/135/105 119/136/105 
f 107/122/92 110/121/92 118/133/92 120/137/92 
f 118/133/113 117/132/113 121/138/113 122/139/113 
f 117/132/112 119/134/112 123/140/112 121/138/112 
f 119/136/105 120/135/105 124/141/105 123/142/105 
f 120/137/92 118/133/92 122/139/92 124/143/92 
f 122/139/113 121/138/113 125/144/113 126/145/113 
f 121/138/112 123/140/112 127/146/112 125/144/112 
f 123/142/105 124/141/105 128/147/105 127/148/105 
f 124/143/92 122/139/92 126/145/92 128/149/92 
f 126/145/113 125/144/113 114/125/113 113/124/113 
f 125/150/112 127/151/112 115/126/112 114/125/112 
f 129/152/105 130/153/105 131/154/105 132/155/105 
f 128/156/92 126/157/92 113/124/92 116/127/92 
f 127/148/110 128/147/110 133/158/110 134/159/110 
f 128/156/92 116/127/92 135/160/92 133/161/92 
f 116/127/111 115/126/111 136/162/111 135/160/111 
f 115/126/112 127/151/112 134/163/112 136/162/112 
f 137/164/110 138/165/110 139/166/110 140/167/110 
f 133/168/92 135/169/92 131/154/92 130/153/92 
f 135/160/111 136/162/111 132/155/111 131/154/111 
f 136/170/112 134/171/112 129/152/112 132/155/112 
f 134/159/113 133/158/113 138/172/113 137/173/113 
f 133/168/92 130/153/92 139/166/92 138/174/92 
f 130/153/105 129/152/105 140/167/105 139/166/105 
f 129/152/112 134/171/112 137/175/112 140/167/112 
f 92/97/111 91/96/111 141/176/111 142/177/111 
f 91/96/111 93/98/111 143/178/111 141/176/111 
f 93/98/111 94/99/111 144/179/111 143/178/111 
f 94/99/111 95/100/111 145/180/111 144/179/111 
f 95/100/111 96/101/111 146/181/111 145/180/111 
f 96/101/114 97/102/114 147/182/114 146/181/114 
f 97/102/114 98/103/114 148/183/114 147/182/114 
f 98/103/114 99/104/114 149/184/114 148/183/114 
f 99/104/114 100/105/114 150/185/114 149/184/114 
f 100/105/115 101/106/115 151/186/115 150/185/115 
f 101/106/115 102/107/115 152/187/115 151/186/115 
f 102/107/115 103/108/115 153/188/115 152/187/115 
f 103/108/115 104/109/115 154/189/115 153/188/115 
f 104/109/115 110/190/115 155/191/115 154/189/115 
f 110/115/116 109/114/116 156/192/116 155/193/116 
f 109/114/116 111/116/116 157/194/116 156/192/116 
f 111/116/116 112/117/116 158/195/116 157/194/116 
f 112/117/116 92/97/116 142/177/116 158/195/116 
f 142/177/117 141/176/117 159/196/117 160/197/117 
f 141/176/118 143/178/118 161/198/118 159/196/118 
f 143/178/119 144/179/119 162/199/119 161/198/119 
f 144/179/104 145/180/104 163/200/104 162/199/104 
f 145/180/105 146/181/105 164/201/105 163/200/105 
f 146/181/107 147/182/107 165/202/107 164/201/107 
f 147/182/120 148/183/120 166/203/120 165/202/120 
f 148/183/121 149/184/121 167/204/121 166/203/121 
f 149/184/122 150/185/122 168/205/122 167/204/122 
f 150/185/123 151/186/123 169/206/123 168/205/123 
f 151/186/124 152/187/124 170/207/124 169/206/124 
f 152/187/125 153/188/125 171/208/125 170/207/125 
f 153/188/126 154/189/126 172/209/126 171/208/126 
f 154/189/113 155/191/113 173/210/113 172/209/113 
f 155/193/127 156/192/127 174/211/127 173/212/127 
f 156/192/128 157/194/128 175/213/128 174/211/128 
f 157/194/129 158/195/129 176/214/129 175/213/129 
f 158/195/130 142/177/130 160/197/130 176/214/130 
f 2/215/110 1/216/110 177/217/110 
f 5/218/110 2/215/110 177/217/110 
f 7/219/110 5/218/110 177/217/110 
f 9/220/110 7/219/110 177/217/110 
f 11/221/110 9/220/110 177/217/110 
f 13/222/110 11/221/110 177/217/110 
f 15/223/110 13/222/110 177/217/110 
f 17/224/110 15/223/110 177/217/110 
f 19/225/110 17/224/110 177/217/110 
f 21/226/110 19/225/110 177/217/110 
f 23/227/110 21/226/110 177/217/110 
f 25/228/110 23/227/110 177/217/110 
f 27/229/110 25/228/110 177/217/110 
f 29/230/110 27/229/110 177/217/110 
f 31/231/110 29/230/110 177/217/110 
f 33/232/110 31/231/110 177/217/110 
f 35/233/110 33/232/110 177/217/110 
f 1/216/110 35/233/110 177/217/110 
# 158 polygons - 18 triangles

